<svg xmlns="http://www.w3.org/2000/svg" width="40" height="75" fill="none" viewBox="0 0 40 75">
  <path fill="#120908" d="M6.244 45.425C4.91 44.172 2.29 41.11 2.486 38.889L.36 36.929c-.544 1.742-.882 6.339 2.125 10.783C6.022 52.94 5.942 50.5 6.192 55.23c.39.241.855.57 1.365.98 2.367 1.905 5.67 5.561 6.53 10.294L18.338 75h.98l-.163-5.065L18.5 57.19l-2.451-2.451c-2.506-1.09-7.452-4.15-7.19-7.68l10.295 6.046-6.7-5.72-6.21-1.96Z"/>
  <path fill="#120908" d="m6.734 44.118-.49 1.307 6.21 1.96-.654-1.143-5.066-2.124Zm.164 13.072 1.307.653v2.451l5.883 6.21c-.86-4.734-4.164-8.39-6.531-10.295l-.66.98Z"/>
  <path fill="#120908" d="m6.244 56.21-.653.98.326.653.98-.654.66-.98c-.51-.41-.976-.739-1.365-.98l.052.98ZM11.8 31.373C2.65 28.105 4.61 13.67 6.734 6.863l-.02-.196L4.61 5.392 3.956 0C.906 9.205-2.809 30.915 6.734 44.118l5.066 2.124.654 1.144 6.7 5.719h.653V14.542c-2.451 2.016-7.68 6.373-8.987 7.68-1.308 1.307.544 6.21 1.634 8.497l-.654.654Z"/>
  <path fill="#120908" d="M19.154 69.935h.653v-16.83h-.653L8.859 47.059c-.262 3.53 4.684 6.59 7.19 7.68l2.45 2.45.655 12.746Z"/>
  <path fill="#120908" d="M19.154 69.935h.653v-16.83h-.653L8.859 47.059c-.262 3.53 4.684 6.59 7.19 7.68l2.45 2.45.655 12.746Z"/>
  <path fill="#000" d="M20.09 53.105h-.865l-10.056-5.72c-.188 1.253.97 4.445 7.114 7.19l2.451 2.451.654 12.745h.702V53.105Z"/>
  <path fill="#fff" d="M12.108 49.673c1.525.436 4.837 2.092 5.882 5.229-1.064-.7-2.45-1.96-3.921-2.87-1.471-.908-2.088-1.914-1.961-2.359Z"/>
  <path fill="#704BBF" d="M19.124 53.105 8.83 47.059c-.11 1.47 1.176 5.065 7.19 7.68l2.45 2.45.654 12.746h.653v-.164h-.49l-.653-12.745-2.397-2.45c-2.47-1.09-7.342-4.053-7.08-7.19l9.967 5.719Z"/>
  <path fill="#21173D" d="m14.218 66.667-5.88-6.389v-2.456l-1.306-.656.49-.744c2.362 2.082 5.722 5.9 6.696 10.245ZM4.583 5.405 3.929 0c.545.491 1.797 1.54 2.45 1.802l.49 5.078-2.286-1.475Z"/>
  <path fill="#21173D" d="M6.87 6.88 4.582 5.405c-2.434 6.76-4.208 21.63 4.806 33.58.025.524 2.45 7.843 3.196 8.517l6.533 5.604h.817V14.742l-9.146 7.535c-1.501 1.413 1.909 8.395 4.246 15.397l-1.282-3.614-3.78 1.976c-.654-.917 1.034-3.44 1.959-4.586-9.146-3.67-7.186-17.91-5.063-24.57Z"/>
  <path fill="#4C36D9" d="m3.922.327.49 5.229 2.124 1.47-.327-4.738L3.922.327Z"/>
  <path fill="#120908" d="M33.625 45.425c1.335-1.253 3.955-4.314 3.758-6.536l2.125-1.96c.544 1.742.882 6.339-2.125 10.783-3.536 5.227-3.456 2.788-3.706 7.517-.389.241-.855.57-1.364.98-2.368 1.905-5.671 5.561-6.532 10.294L21.533 75h-.98l.163-5.065.653-12.745 2.451-2.451c2.506-1.09 7.452-4.15 7.19-7.68l-10.294 6.046 6.7-5.72 6.21-1.96Z"/>
  <path fill="#120908" d="m33.135 44.118.49 1.307-6.21 1.96.654-1.143 5.066-2.124Zm-.164 13.072-1.307.653v2.451l-5.883 6.21c.861-4.734 4.165-8.39 6.532-10.295l.658.98Z"/>
  <path fill="#120908" d="m33.625 56.21.654.98-.327.653-.98-.654-.66-.98c.51-.41.976-.739 1.365-.98l-.052.98ZM28.07 31.373c9.15-3.268 7.19-17.702 5.065-24.51l.02-.196 2.104-1.275L35.913 0c3.05 9.205 6.765 30.915-2.778 44.118l-5.066 2.124-.653 1.144-6.7 5.719h-.654V14.542c2.451 2.016 7.68 6.373 8.988 7.68 1.307 1.307-.545 6.21-1.634 8.497l.653.654Z"/>
  <path fill="#120908" d="M20.716 69.935h-.654v-16.83h.654l10.294-6.046c.262 3.53-4.684 6.59-7.19 7.68l-2.45 2.45-.654 12.746Z"/>
  <path fill="#120908" d="M20.716 69.935h-.654v-16.83h.654l10.294-6.046c.262 3.53-4.684 6.59-7.19 7.68l-2.45 2.45-.654 12.746Z"/>
  <path fill="#000" d="M19.737 53.105h.908l10.055-5.72c.189 1.253-.97 4.445-7.114 7.19l-2.451 2.451-.654 12.745h-.744V53.105Z"/>
  <path fill="#fff" d="M27.762 49.673c-1.526.436-4.837 2.092-5.883 5.229 1.064-.7 2.451-1.96 3.922-2.87 1.47-.908 2.088-1.914 1.96-2.359Z"/>
  <path fill="#704BBF" d="m20.745 53.105 10.295-6.046c.108 1.47-1.177 5.065-7.19 7.68l-2.451 2.45-.654 12.746h-.653v-.164h.49l.654-12.745 2.396-2.45c2.47-1.09 7.342-4.053 7.08-7.19l-9.966 5.719Z"/>
  <path fill="#21173D" d="m25.65 66.667 5.88-6.389v-2.456l1.307-.656-.49-.744c-2.362 2.082-5.722 5.9-6.696 10.245Zm9.637-61.262L35.94 0c-.544.491-1.796 1.54-2.45 1.802L33 6.88l2.287-1.475Z"/>
  <path fill="#21173D" d="m33 6.88 2.287-1.475c2.433 6.76 4.207 21.63-4.807 33.58-.024.524-2.45 7.843-3.196 8.517l-6.533 5.604h-.816V14.742l9.146 7.535c1.5 1.413-1.91 8.395-4.247 15.397l1.283-3.614 3.78 1.976c.654-.917-1.034-3.44-1.96-4.586C37.083 27.78 35.123 13.54 33 6.88Z"/>
  <path fill="#4C36D9" d="m35.948.327-.49 5.229-2.125 1.47.327-4.738L35.948.327Z"/>
</svg>
