<svg xmlns="http://www.w3.org/2000/svg" width="1866" height="498" fill="none" viewBox="0 0 1866 498">
  <g clip-path="url(#a)">
    <path fill="#D9D9D9" fill-rule="evenodd" d="M1866 0H-1.957v92h-.212v406h481.557c28.167 0 51-22.833 51-51V169.844l.092-14.74c.109-17.517 14.284-31.691 31.801-31.8l49.068-.304h623.331l49.06.304c16.64.103 30.27 12.898 31.68 29.194V243c0 140.833 114.17 255 255 255H1866V0Z" clip-rule="evenodd"/>
    <g clip-path="url(#b)">
      <path fill="#0C1F0C" d="M76.591 449.234h27.916v81.679H76.591z"/>
      <path fill="#0C1F0C" d="M87.964 449.234h16.543v81.68H87.964v-81.68Z" opacity=".1"/>
      <path fill="#0C1F0C" fill-rule="evenodd" d="m87.447 269.333 53.276 81.42h-18.727l40.148 61.26h-22.826l34.466 51.696H.077l34.465-51.696H11.717l40.147-61.26H34.171l53.276-81.42Z" clip-rule="evenodd"/>
      <path fill="#0C1F0C" fill-rule="evenodd" d="m.081 463.702-.004.007H.08v-.007Zm86.85.007h86.853l-34.466-51.696h22.826l-40.148-61.26h18.727l-53.276-81.42-.517.789v193.587Z" clip-rule="evenodd" opacity=".1"/>
      <path fill="#0C1F0C" d="M183.349 423.901h27.916v81.679h-27.916z"/>
      <path fill="#0C1F0C" d="M194.722 423.901h16.543v81.68h-16.543v-81.68Z" opacity=".1"/>
      <path fill="#0C1F0C" fill-rule="evenodd" d="m194.205 244 53.276 81.421h-18.727l40.147 61.259h-22.825l34.466 51.696H106.834L141.3 386.68h-22.826l40.148-61.259h-17.693L194.205 244Z" clip-rule="evenodd"/>
      <path fill="#0C1F0C" fill-rule="evenodd" d="m106.839 438.369-.005.007h.005v-.007Zm86.849.007h86.854l-34.466-51.696h22.825l-40.147-61.259h18.727L194.205 244l-.517.79v193.586Z" clip-rule="evenodd" opacity=".1"/>
      <path fill="#0C1F0C" d="M270.202 463.709h27.916v81.679h-27.916z"/>
      <path fill="#0C1F0C" d="M281.575 463.709h16.543v81.679h-16.543v-81.679Z" opacity=".1"/>
      <path fill="#0C1F0C" fill-rule="evenodd" d="m281.058 283.808 53.276 81.421h-18.727l40.148 61.259h-22.826l34.466 51.696H193.688l34.466-51.696h-22.826l40.148-61.259h-17.694l53.276-81.421Z" clip-rule="evenodd"/>
      <path fill="#0C1F0C" fill-rule="evenodd" d="m193.692 478.177-.004.007h.004v-.007Zm86.849.007h86.854l-34.466-51.696h22.826l-40.148-61.259h18.727l-53.276-81.421-.517.79v193.586Z" clip-rule="evenodd" opacity=".1"/>
      <path fill="#0C1F0C" d="M396.864 443.805h27.916v81.679h-27.916z"/>
      <path fill="#0C1F0C" d="M408.237 443.805h16.542v81.68h-16.542v-81.68Z" opacity=".1"/>
      <path fill="#0C1F0C" fill-rule="evenodd" d="m407.72 263.904 53.276 81.421h-18.728l40.148 61.26h-22.825l34.465 51.695H320.349l34.466-51.695h-22.826l40.148-61.26h-17.694l53.277-81.421Z" clip-rule="evenodd"/>
      <path fill="#0C1F0C" fill-rule="evenodd" d="m320.354 458.273-.005.007h.005v-.007Zm86.849.007h86.853l-34.465-51.695h22.825l-40.148-61.26h18.728l-53.276-81.421-.517.79V458.28Z" clip-rule="evenodd" opacity=".1"/>
      <path fill="#071207" d="M11.856 439.06H31.87v58.559H11.856z"/>
      <path fill="#071207" d="M20.01 439.06h11.86v58.559H20.01V439.06Z" opacity=".1"/>
      <path fill="#071207" fill-rule="evenodd" d="m19.64 310.081 38.195 58.374H44.409l28.783 43.919H56.828l24.71 37.063H-43l24.71-37.063h-16.365l28.784-43.919h-12.685l38.195-58.374Z" clip-rule="evenodd"/>
      <path fill="#071207" fill-rule="evenodd" d="m-42.997 449.432-.003.005h.003v-.005Zm62.266.005h62.268l-24.71-37.063h16.365L44.41 368.455h13.426L19.64 310.081l-.37.566v138.79Z" clip-rule="evenodd" opacity=".1"/>
      <path fill="#071207" d="M120.826 448.14h20.014v58.559h-20.014z"/>
      <path fill="#071207" d="M128.98 448.14h11.86v58.559h-11.86V448.14Z" opacity=".1"/>
      <path fill="#071207" fill-rule="evenodd" d="m128.609 319.162 38.196 58.373h-13.426l28.783 43.92h-16.364l24.71 37.063H65.97l24.71-37.063H74.315l28.784-43.92H90.414l38.195-58.373Z" clip-rule="evenodd"/>
      <path fill="#071207" fill-rule="evenodd" d="m65.974 458.513-.004.005h.004v-.005Zm62.265.005h62.269l-24.71-37.063h16.364l-28.783-43.92h13.426l-38.196-58.373-.37.566v138.79Z" clip-rule="evenodd" opacity=".1"/>
      <path fill="#071207" d="M450.332 465.005h20.014v58.559h-20.014z"/>
      <path fill="#071207" d="M458.485 465.005h11.86v58.559h-11.86v-58.559Z" opacity=".1"/>
      <path fill="#071207" fill-rule="evenodd" d="m458.115 336.026 38.196 58.374h-13.427l28.784 43.92h-16.365l24.71 37.062H395.476l24.709-37.062h-16.364l28.783-43.92h-12.685l38.196-58.374Z" clip-rule="evenodd"/>
      <path fill="#071207" fill-rule="evenodd" d="m395.479 475.377-.003.005h.003v-.005Zm62.265.005h62.269l-24.71-37.062h16.365l-28.784-43.92h13.427l-38.196-58.374-.371.567v138.789Z" clip-rule="evenodd" opacity=".1"/>
      <path fill="#071207" d="M197.365 429.979h20.014v58.559h-20.014z"/>
      <path fill="#071207" d="M205.519 429.979h11.86v58.559h-11.86v-58.559Z" opacity=".1"/>
      <path fill="#071207" fill-rule="evenodd" d="m205.148 301 38.196 58.374h-13.427l28.784 43.919h-16.365l24.71 37.063H142.509l24.71-37.063h-16.365l28.783-43.919h-12.685L205.148 301Z" clip-rule="evenodd"/>
      <path fill="#071207" fill-rule="evenodd" d="m142.512 440.351-.003.005h.003v-.005Zm62.266.005h62.268l-24.71-37.063h16.365l-28.784-43.919h13.427L205.148 301l-.37.566v138.79Z" clip-rule="evenodd" opacity=".1"/>
      <path fill="#071207" d="M259.634 458.519h20.014v58.559h-20.014z"/>
      <path fill="#071207" d="M267.788 458.519h11.86v58.559h-11.86v-58.559Z" opacity=".1"/>
      <path fill="#071207" fill-rule="evenodd" d="m267.417 329.54 38.196 58.374h-13.427l28.784 43.919h-16.364l24.709 37.063H204.778l24.71-37.063h-16.365l28.783-43.919h-12.685l38.196-58.374Z" clip-rule="evenodd"/>
      <path fill="#071207" fill-rule="evenodd" d="m204.781 468.891-.003.005h.003v-.005Zm62.266.005h62.268l-24.709-37.063h16.364l-28.784-43.919h13.427l-38.196-58.374-.37.566v138.79Z" clip-rule="evenodd" opacity=".1"/>
      <path fill="#071207" d="M350.442 444.249h20.014v58.559h-20.014z"/>
      <path fill="#071207" d="M358.596 444.249h11.86v58.559h-11.86v-58.559Z" opacity=".1"/>
      <path fill="#071207" fill-rule="evenodd" d="m358.226 315.27 38.195 58.374h-13.426l28.784 43.919h-16.365l24.71 37.063H295.586l24.71-37.063h-16.364l28.783-43.919H320.03l38.196-58.374Z" clip-rule="evenodd"/>
      <path fill="#071207" fill-rule="evenodd" d="m295.59 454.621-.004.005h.004v-.005Zm62.265.005h62.269l-24.71-37.063h16.365l-28.784-43.919h13.426l-38.195-58.374-.371.566v138.79Z" clip-rule="evenodd" opacity=".1"/>
      <path fill="#071207" d="M11.856 439.06H31.87v58.559H11.856z"/>
      <path fill="#071207" d="M20.01 439.06h11.86v58.559H20.01V439.06Z" opacity=".1"/>
      <path fill="#071207" fill-rule="evenodd" d="m19.64 310.081 38.195 58.374H44.409l28.783 43.919H56.828l24.71 37.063H-43l24.71-37.063h-16.365l28.784-43.919h-12.685l38.195-58.374Z" clip-rule="evenodd"/>
      <path fill="#071207" fill-rule="evenodd" d="m-42.997 449.432-.003.005h.003v-.005Zm62.266.005h62.268l-24.71-37.063h16.365L44.41 368.455h13.426L19.64 310.081l-.37.566v138.79Z" clip-rule="evenodd" opacity=".1"/>
      <path fill="#071207" d="M120.826 448.14h20.014v58.559h-20.014z"/>
      <path fill="#071207" d="M128.98 448.14h11.86v58.559h-11.86V448.14Z" opacity=".1"/>
      <path fill="#071207" fill-rule="evenodd" d="m128.609 319.162 38.196 58.373h-13.426l28.783 43.92h-16.364l24.71 37.063H65.97l24.71-37.063H74.315l28.784-43.92H90.414l38.195-58.373Z" clip-rule="evenodd"/>
      <path fill="#071207" fill-rule="evenodd" d="m65.974 458.513-.004.005h.004v-.005Zm62.265.005h62.269l-24.71-37.063h16.364l-28.783-43.92h13.426l-38.196-58.373-.37.566v138.79Z" clip-rule="evenodd" opacity=".1"/>
      <path fill="#071207" d="M450.332 465.005h20.014v58.559h-20.014z"/>
      <path fill="#071207" d="M458.485 465.005h11.86v58.559h-11.86v-58.559Z" opacity=".1"/>
      <path fill="#071207" fill-rule="evenodd" d="m458.115 336.026 38.196 58.374h-13.427l28.784 43.92h-16.365l24.71 37.062H395.476l24.709-37.062h-16.364l28.783-43.92h-12.685l38.196-58.374Z" clip-rule="evenodd"/>
      <path fill="#071207" fill-rule="evenodd" d="m395.479 475.377-.003.005h.003v-.005Zm62.265.005h62.269l-24.71-37.062h16.365l-28.784-43.92h13.427l-38.196-58.374-.371.567v138.789Z" clip-rule="evenodd" opacity=".1"/>
      <path fill="#071207" d="M197.365 429.979h20.014v58.559h-20.014z"/>
      <path fill="#071207" d="M205.519 429.979h11.86v58.559h-11.86v-58.559Z" opacity=".1"/>
      <path fill="#071207" fill-rule="evenodd" d="m205.148 301 38.196 58.374h-13.427l28.784 43.919h-16.365l24.71 37.063H142.509l24.71-37.063h-16.365l28.783-43.919h-12.685L205.148 301Z" clip-rule="evenodd"/>
      <path fill="#071207" fill-rule="evenodd" d="m142.512 440.351-.003.005h.003v-.005Zm62.266.005h62.268l-24.71-37.063h16.365l-28.784-43.919h13.427L205.148 301l-.37.566v138.79Z" clip-rule="evenodd" opacity=".1"/>
      <path fill="#071207" d="M259.634 458.519h20.014v58.559h-20.014z"/>
      <path fill="#071207" d="M267.788 458.519h11.86v58.559h-11.86v-58.559Z" opacity=".1"/>
      <path fill="#071207" fill-rule="evenodd" d="m267.417 329.54 38.196 58.374h-13.427l28.784 43.919h-16.364l24.709 37.063H204.778l24.71-37.063h-16.365l28.783-43.919h-12.685l38.196-58.374Z" clip-rule="evenodd"/>
      <path fill="#071207" fill-rule="evenodd" d="m204.781 468.891-.003.005h.003v-.005Zm62.266.005h62.268l-24.709-37.063h16.364l-28.784-43.919h13.427l-38.196-58.374-.37.566v138.79Z" clip-rule="evenodd" opacity=".1"/>
      <path fill="#071207" d="M350.442 444.249h20.014v58.559h-20.014z"/>
      <path fill="#071207" d="M358.596 444.249h11.86v58.559h-11.86v-58.559Z" opacity=".1"/>
      <path fill="#071207" fill-rule="evenodd" d="m358.226 315.27 38.195 58.374h-13.426l28.784 43.919h-16.365l24.71 37.063H295.586l24.71-37.063h-16.364l28.783-43.919H320.03l38.196-58.374Z" clip-rule="evenodd"/>
      <path fill="#071207" fill-rule="evenodd" d="m295.59 454.621-.004.005h.004v-.005Zm62.265.005h62.269l-24.71-37.063h16.365l-28.784-43.919h13.426l-38.195-58.374-.371.566v138.79Z" clip-rule="evenodd" opacity=".1"/>
      <path fill="#080808" d="M23.369 470.423h15.428v45.141H23.369z"/>
      <path fill="#080808" d="M29.654 470.423h9.143v45.141h-9.143v-45.141Z" opacity=".1"/>
      <path fill="#080808" fill-rule="evenodd" d="m29.369 371 29.443 44.998h-10.35l22.188 33.855H58.035l19.048 28.57h-96l19.048-28.57h-12.615l22.188-33.855H-.075L29.37 371Z" clip-rule="evenodd"/>
      <path fill="#080808" fill-rule="evenodd" d="m-18.915 478.419-.002.004h.003v-.004Zm47.998.004h48l-19.048-28.57H70.65l-22.188-33.855h10.35L29.369 371l-.286.437v106.986Z" clip-rule="evenodd" opacity=".1"/>
      <path fill="#080808" d="M90.369 463.423h15.428v45.141H90.369z"/>
      <path fill="#080808" d="M96.654 463.423h9.143v45.141h-9.143v-45.141Z" opacity=".1"/>
      <path fill="#080808" fill-rule="evenodd" d="m96.369 364 29.443 44.998h-10.35l22.188 33.855h-12.615l19.048 28.57h-96l19.048-28.57H54.516l22.188-33.855h-9.779L96.37 364Z" clip-rule="evenodd"/>
      <path fill="#080808" fill-rule="evenodd" d="m48.086 471.419-.003.004h.003v-.004Zm47.997.004h48l-19.048-28.57h12.615l-22.188-33.855h10.35L96.369 364l-.286.437v106.986Z" clip-rule="evenodd" opacity=".1"/>
      <path fill="#080808" d="M174.369 470.423h15.428v45.141h-15.428z"/>
      <path fill="#080808" d="M180.654 470.423h9.143v45.141h-9.143v-45.141Z" opacity=".1"/>
      <path fill="#080808" fill-rule="evenodd" d="m180.369 371 29.443 44.998h-10.35l22.188 33.855h-12.615l19.048 28.57h-96l19.048-28.57h-12.615l22.188-33.855h-9.779L180.369 371Z" clip-rule="evenodd"/>
      <path fill="#080808" fill-rule="evenodd" d="m132.086 478.419-.003.004h.003v-.004Zm47.997.004h48l-19.048-28.57h12.615l-22.188-33.855h10.35L180.369 371l-.286.437v106.986Z" clip-rule="evenodd" opacity=".1"/>
      <path fill="#080808" d="M428.369 483.423h15.428v45.141h-15.428z"/>
      <path fill="#080808" d="M434.654 483.423h9.143v45.141h-9.143v-45.141Z" opacity=".1"/>
      <path fill="#080808" fill-rule="evenodd" d="m434.369 384 29.443 44.998h-10.35l22.188 33.855h-12.615l19.048 28.57h-96l19.048-28.57h-12.615l22.188-33.855h-9.779L434.369 384Z" clip-rule="evenodd"/>
      <path fill="#080808" fill-rule="evenodd" d="m386.086 491.419-.003.004h.003v-.004Zm47.997.004h48l-19.048-28.57h12.615l-22.188-33.855h10.35L434.369 384l-.286.437v106.986Z" clip-rule="evenodd" opacity=".1"/>
      <path fill="#080808" d="M499.369 463.423h15.428v45.141h-15.428z"/>
      <path fill="#080808" d="M505.654 463.423h9.143v45.141h-9.143v-45.141Z" opacity=".1"/>
      <path fill="#080808" fill-rule="evenodd" d="m505.369 364 29.443 44.998h-10.35l22.188 33.855h-12.615l19.048 28.57h-96l19.048-28.57h-12.615l22.188-33.855h-9.779L505.369 364Z" clip-rule="evenodd"/>
      <path fill="#080808" fill-rule="evenodd" d="m457.086 471.419-.003.004h.003v-.004Zm47.997.004h48l-19.048-28.57h12.615l-22.188-33.855h10.35L505.369 364l-.286.437v106.986Z" clip-rule="evenodd" opacity=".1"/>
      <path fill="#080808" d="M233.369 456.423h15.428v45.141h-15.428z"/>
      <path fill="#080808" d="M239.654 456.423h9.143v45.141h-9.143v-45.141Z" opacity=".1"/>
      <path fill="#080808" fill-rule="evenodd" d="m239.369 357 29.443 44.998h-10.35l22.188 33.855h-12.615l19.048 28.57h-96l19.048-28.57h-12.615l22.188-33.855h-9.779L239.369 357Z" clip-rule="evenodd"/>
      <path fill="#080808" fill-rule="evenodd" d="m191.086 464.419-.003.004h.003v-.004Zm47.997.004h48l-19.048-28.57h12.615l-22.188-33.855h10.35L239.369 357l-.286.437v106.986Z" clip-rule="evenodd" opacity=".1"/>
      <path fill="#080808" d="M281.369 478.423h15.428v45.141h-15.428z"/>
      <path fill="#080808" d="M287.654 478.423h9.143v45.141h-9.143v-45.141Z" opacity=".1"/>
      <path fill="#080808" fill-rule="evenodd" d="m287.369 379 29.443 44.998h-10.35l22.188 33.855h-12.615l19.048 28.57h-96l19.048-28.57h-12.615l22.188-33.855h-9.779L287.369 379Z" clip-rule="evenodd"/>
      <path fill="#080808" fill-rule="evenodd" d="m239.086 486.419-.003.004h.003v-.004Zm47.997.004h48l-19.048-28.57h12.615l-22.188-33.855h10.35L287.369 379l-.286.437v106.986Z" clip-rule="evenodd" opacity=".1"/>
      <path fill="#080808" d="M351.369 467.423h15.428v45.141h-15.428z"/>
      <path fill="#080808" d="M357.654 467.423h9.143v45.141h-9.143v-45.141Z" opacity=".1"/>
      <path fill="#080808" fill-rule="evenodd" d="m357.369 368 29.443 44.998h-10.35l22.188 33.855h-12.615l19.048 28.57h-96l19.048-28.57h-12.615l22.188-33.855h-9.779L357.369 368Z" clip-rule="evenodd"/>
      <path fill="#080808" fill-rule="evenodd" d="m309.086 475.419-.003.004h.003v-.004Zm47.997.004h48l-19.048-28.57h12.615l-22.188-33.855h10.35L357.369 368l-.286.437v106.986Z" clip-rule="evenodd" opacity=".1"/>
    </g>
    <g clip-path="url(#c)">
      <path fill="#0C1F0C" d="M1434.59 449.234h27.916v81.679h-27.916z"/>
      <path fill="#0C1F0C" d="M1445.96 449.234h16.55v81.68h-16.55v-81.68Z" opacity=".1"/>
      <path fill="#0C1F0C" fill-rule="evenodd" d="m1445.45 269.333 53.27 81.42H1480l40.14 61.26h-22.82l34.46 51.696h-173.7l34.46-51.696h-22.82l40.14-61.26h-17.69l53.28-81.42Z" clip-rule="evenodd"/>
      <path fill="#0C1F0C" fill-rule="evenodd" d="M1358.08 463.702v.007-.007Zm86.85.007h86.85l-34.46-51.696h22.82l-40.14-61.26h18.72l-53.27-81.42-.52.789v193.587Z" clip-rule="evenodd" opacity=".1"/>
      <path fill="#0C1F0C" d="M1541.35 423.901h27.916v81.679h-27.916z"/>
      <path fill="#0C1F0C" d="M1552.72 423.901h16.54v81.68h-16.54v-81.68Z" opacity=".1"/>
      <path fill="#0C1F0C" fill-rule="evenodd" d="m1552.2 244 53.28 81.421h-18.73l40.15 61.259h-22.82l34.46 51.696h-173.71l34.47-51.696h-22.83l40.15-61.259h-17.69L1552.2 244Z" clip-rule="evenodd"/>
      <path fill="#0C1F0C" fill-rule="evenodd" d="m1464.84 438.369-.01.007h.01v-.007Zm86.85.007h86.85l-34.46-51.696h22.82l-40.15-61.259h18.73L1552.2 244l-.51.79v193.586Z" clip-rule="evenodd" opacity=".1"/>
      <path fill="#0C1F0C" d="M1628.2 463.709h27.916v81.679H1628.2z"/>
      <path fill="#0C1F0C" d="M1639.58 463.709h16.54v81.679h-16.54v-81.679Z" opacity=".1"/>
      <path fill="#0C1F0C" fill-rule="evenodd" d="m1639.06 283.808 53.27 81.421h-18.72l40.14 61.259h-22.82l34.47 51.696h-173.71l34.46-51.696h-22.82l40.15-61.259h-17.7l53.28-81.421Z" clip-rule="evenodd"/>
      <path fill="#0C1F0C" fill-rule="evenodd" d="M1551.69 478.177v.007-.007Zm86.85.007h86.86l-34.47-51.696h22.82l-40.14-61.259h18.72l-53.27-81.421-.52.79v193.586Z" clip-rule="evenodd" opacity=".1"/>
      <path fill="#0C1F0C" d="M1754.86 443.805h27.916v81.679h-27.916z"/>
      <path fill="#0C1F0C" d="M1766.24 443.805h16.54v81.68h-16.54v-81.68Z" opacity=".1"/>
      <path fill="#0C1F0C" fill-rule="evenodd" d="m1765.72 263.904 53.28 81.421h-18.73l40.15 61.26h-22.83l34.47 51.695h-173.71l34.46-51.695h-22.82l40.15-61.26h-17.7l53.28-81.421Z" clip-rule="evenodd"/>
      <path fill="#0C1F0C" fill-rule="evenodd" d="M1678.35 458.273v.007-.007Zm86.85.007h86.86l-34.47-51.695h22.83l-40.15-61.26H1819l-53.28-81.421-.52.79V458.28Z" clip-rule="evenodd" opacity=".1"/>
      <path fill="#071207" d="M1369.86 439.06h20.014v58.559h-20.014z"/>
      <path fill="#071207" d="M1378.01 439.06h11.86v58.559h-11.86V439.06Z" opacity=".1"/>
      <path fill="#071207" fill-rule="evenodd" d="m1377.64 310.081 38.2 58.374h-13.43l28.78 43.919h-16.36l24.71 37.063H1315l24.71-37.063h-16.36l28.78-43.919h-12.69l38.2-58.374Z" clip-rule="evenodd"/>
      <path fill="#071207" fill-rule="evenodd" d="M1315 449.432v.005-.005Zm62.27.005h62.27l-24.71-37.063h16.36l-28.78-43.919h13.43l-38.2-58.374-.37.566v138.79Z" clip-rule="evenodd" opacity=".1"/>
      <path fill="#071207" d="M1478.83 448.14h20.014v58.559h-20.014z"/>
      <path fill="#071207" d="M1486.98 448.14h11.86v58.559h-11.86V448.14Z" opacity=".1"/>
      <path fill="#071207" fill-rule="evenodd" d="m1486.61 319.162 38.2 58.373h-13.43l28.78 43.92h-16.36l24.71 37.063h-124.54l24.71-37.063h-16.36l28.78-43.92h-12.69l38.2-58.373Z" clip-rule="evenodd"/>
      <path fill="#071207" fill-rule="evenodd" d="M1423.97 458.513v.005-.005Zm62.27.005h62.27l-24.71-37.063h16.36l-28.78-43.92h13.43l-38.2-58.373-.37.566v138.79Z" clip-rule="evenodd" opacity=".1"/>
      <path fill="#071207" d="M1808.33 465.005h20.014v58.559h-20.014z"/>
      <path fill="#071207" d="M1816.49 465.005h11.86v58.559h-11.86v-58.559Z" opacity=".1"/>
      <path fill="#071207" fill-rule="evenodd" d="m1816.11 336.026 38.2 58.374h-13.43l28.79 43.92h-16.37l24.71 37.062h-124.53l24.71-37.062h-16.37l28.78-43.92h-12.68l38.19-58.374Z" clip-rule="evenodd"/>
      <path fill="#071207" fill-rule="evenodd" d="M1753.48 475.377v.005-.005Zm62.26.005h62.27l-24.71-37.062h16.37l-28.79-43.92h13.43l-38.2-58.374-.37.567v138.789Z" clip-rule="evenodd" opacity=".1"/>
      <path fill="#071207" d="M1555.37 429.979h20.014v58.559h-20.014z"/>
      <path fill="#071207" d="M1563.52 429.979h11.86v58.559h-11.86v-58.559Z" opacity=".1"/>
      <path fill="#071207" fill-rule="evenodd" d="m1563.15 301 38.19 58.374h-13.42l28.78 43.919h-16.36l24.71 37.063h-124.54l24.71-37.063h-16.37l28.79-43.919h-12.69l38.2-58.374Z" clip-rule="evenodd"/>
      <path fill="#071207" fill-rule="evenodd" d="M1500.51 440.351v.005-.005Zm62.27.005h62.27l-24.71-37.063h16.36l-28.78-43.919h13.42L1563.15 301l-.37.566v138.79Z" clip-rule="evenodd" opacity=".1"/>
      <path fill="#071207" d="M1617.63 458.519h20.014v58.559h-20.014z"/>
      <path fill="#071207" d="M1625.79 458.519h11.86v58.559h-11.86v-58.559Z" opacity=".1"/>
      <path fill="#071207" fill-rule="evenodd" d="m1625.42 329.54 38.19 58.374h-13.42l28.78 43.919h-16.36l24.71 37.063h-124.54l24.71-37.063h-16.37l28.79-43.919h-12.69l38.2-58.374Z" clip-rule="evenodd"/>
      <path fill="#071207" fill-rule="evenodd" d="M1562.78 468.891v.005-.005Zm62.27.005h62.27l-24.71-37.063h16.36l-28.78-43.919h13.42l-38.19-58.374-.37.566v138.79Z" clip-rule="evenodd" opacity=".1"/>
      <path fill="#071207" d="M1708.44 444.249h20.014v58.559h-20.014z"/>
      <path fill="#071207" d="M1716.6 444.249h11.86v58.559h-11.86v-58.559Z" opacity=".1"/>
      <path fill="#071207" fill-rule="evenodd" d="m1716.23 315.27 38.19 58.374H1741l28.78 43.919h-16.37l24.71 37.063h-124.53l24.71-37.063h-16.37l28.79-43.919h-12.69l38.2-58.374Z" clip-rule="evenodd"/>
      <path fill="#071207" fill-rule="evenodd" d="M1653.59 454.621v.005-.005Zm62.27.005h62.26l-24.71-37.063h16.37L1741 373.644h13.42l-38.19-58.374-.37.566v138.79Z" clip-rule="evenodd" opacity=".1"/>
      <path fill="#071207" d="M1369.86 439.06h20.014v58.559h-20.014z"/>
      <path fill="#071207" d="M1378.01 439.06h11.86v58.559h-11.86V439.06Z" opacity=".1"/>
      <path fill="#071207" fill-rule="evenodd" d="m1377.64 310.081 38.2 58.374h-13.43l28.78 43.919h-16.36l24.71 37.063H1315l24.71-37.063h-16.36l28.78-43.919h-12.69l38.2-58.374Z" clip-rule="evenodd"/>
      <path fill="#071207" fill-rule="evenodd" d="M1315 449.432v.005-.005Zm62.27.005h62.27l-24.71-37.063h16.36l-28.78-43.919h13.43l-38.2-58.374-.37.566v138.79Z" clip-rule="evenodd" opacity=".1"/>
      <path fill="#071207" d="M1478.83 448.14h20.014v58.559h-20.014z"/>
      <path fill="#071207" d="M1486.98 448.14h11.86v58.559h-11.86V448.14Z" opacity=".1"/>
      <path fill="#071207" fill-rule="evenodd" d="m1486.61 319.162 38.2 58.373h-13.43l28.78 43.92h-16.36l24.71 37.063h-124.54l24.71-37.063h-16.36l28.78-43.92h-12.69l38.2-58.373Z" clip-rule="evenodd"/>
      <path fill="#071207" fill-rule="evenodd" d="M1423.97 458.513v.005-.005Zm62.27.005h62.27l-24.71-37.063h16.36l-28.78-43.92h13.43l-38.2-58.373-.37.566v138.79Z" clip-rule="evenodd" opacity=".1"/>
      <path fill="#071207" d="M1808.33 465.005h20.014v58.559h-20.014z"/>
      <path fill="#071207" d="M1816.49 465.005h11.86v58.559h-11.86v-58.559Z" opacity=".1"/>
      <path fill="#071207" fill-rule="evenodd" d="m1816.11 336.026 38.2 58.374h-13.43l28.79 43.92h-16.37l24.71 37.062h-124.53l24.71-37.062h-16.37l28.78-43.92h-12.68l38.19-58.374Z" clip-rule="evenodd"/>
      <path fill="#071207" fill-rule="evenodd" d="M1753.48 475.377v.005-.005Zm62.26.005h62.27l-24.71-37.062h16.37l-28.79-43.92h13.43l-38.2-58.374-.37.567v138.789Z" clip-rule="evenodd" opacity=".1"/>
      <path fill="#071207" d="M1555.37 429.979h20.014v58.559h-20.014z"/>
      <path fill="#071207" d="M1563.52 429.979h11.86v58.559h-11.86v-58.559Z" opacity=".1"/>
      <path fill="#071207" fill-rule="evenodd" d="m1563.15 301 38.19 58.374h-13.42l28.78 43.919h-16.36l24.71 37.063h-124.54l24.71-37.063h-16.37l28.79-43.919h-12.69l38.2-58.374Z" clip-rule="evenodd"/>
      <path fill="#071207" fill-rule="evenodd" d="M1500.51 440.351v.005-.005Zm62.27.005h62.27l-24.71-37.063h16.36l-28.78-43.919h13.42L1563.15 301l-.37.566v138.79Z" clip-rule="evenodd" opacity=".1"/>
      <path fill="#071207" d="M1617.63 458.519h20.014v58.559h-20.014z"/>
      <path fill="#071207" d="M1625.79 458.519h11.86v58.559h-11.86v-58.559Z" opacity=".1"/>
      <path fill="#071207" fill-rule="evenodd" d="m1625.42 329.54 38.19 58.374h-13.42l28.78 43.919h-16.36l24.71 37.063h-124.54l24.71-37.063h-16.37l28.79-43.919h-12.69l38.2-58.374Z" clip-rule="evenodd"/>
      <path fill="#071207" fill-rule="evenodd" d="M1562.78 468.891v.005-.005Zm62.27.005h62.27l-24.71-37.063h16.36l-28.78-43.919h13.42l-38.19-58.374-.37.566v138.79Z" clip-rule="evenodd" opacity=".1"/>
      <path fill="#071207" d="M1708.44 444.249h20.014v58.559h-20.014z"/>
      <path fill="#071207" d="M1716.6 444.249h11.86v58.559h-11.86v-58.559Z" opacity=".1"/>
      <path fill="#071207" fill-rule="evenodd" d="m1716.23 315.27 38.19 58.374H1741l28.78 43.919h-16.37l24.71 37.063h-124.53l24.71-37.063h-16.37l28.79-43.919h-12.69l38.2-58.374Z" clip-rule="evenodd"/>
      <path fill="#071207" fill-rule="evenodd" d="M1653.59 454.621v.005-.005Zm62.27.005h62.26l-24.71-37.063h16.37L1741 373.644h13.42l-38.19-58.374-.37.566v138.79Z" clip-rule="evenodd" opacity=".1"/>
      <path fill="#080808" d="M1381.37 470.423h15.428v45.141h-15.428z"/>
      <path fill="#080808" d="M1387.65 470.423h9.15v45.141h-9.15v-45.141Z" opacity=".1"/>
      <path fill="#080808" fill-rule="evenodd" d="m1387.37 371 29.44 44.998h-10.35l22.19 33.855h-12.61l19.04 28.57h-96l19.05-28.57h-12.61l22.18-33.855h-9.77L1387.37 371Z" clip-rule="evenodd"/>
      <path fill="#080808" fill-rule="evenodd" d="m1339.09 478.419-.01.004h.01v-.004Zm47.99.004h48l-19.04-28.57h12.61l-22.19-33.855h10.35L1387.37 371l-.29.437v106.986Z" clip-rule="evenodd" opacity=".1"/>
      <path fill="#080808" d="M1448.37 463.423h15.428v45.141h-15.428z"/>
      <path fill="#080808" d="M1454.65 463.423h9.15v45.141h-9.15v-45.141Z" opacity=".1"/>
      <path fill="#080808" fill-rule="evenodd" d="m1454.37 364 29.44 44.998h-10.35l22.19 33.855h-12.61l19.04 28.57h-96l19.05-28.57h-12.61l22.18-33.855h-9.77L1454.37 364Z" clip-rule="evenodd"/>
      <path fill="#080808" fill-rule="evenodd" d="m1406.09 471.419-.01.004h.01v-.004Zm47.99.004h48l-19.04-28.57h12.61l-22.19-33.855h10.35L1454.37 364l-.29.437v106.986Z" clip-rule="evenodd" opacity=".1"/>
      <path fill="#080808" d="M1532.37 470.423h15.428v45.141h-15.428z"/>
      <path fill="#080808" d="M1538.65 470.423h9.15v45.141h-9.15v-45.141Z" opacity=".1"/>
      <path fill="#080808" fill-rule="evenodd" d="m1538.37 371 29.44 44.998h-10.35l22.19 33.855h-12.61l19.04 28.57h-96l19.05-28.57h-12.61l22.18-33.855h-9.77L1538.37 371Z" clip-rule="evenodd"/>
      <path fill="#080808" fill-rule="evenodd" d="m1490.09 478.419-.01.004h.01v-.004Zm47.99.004h48l-19.04-28.57h12.61l-22.19-33.855h10.35L1538.37 371l-.29.437v106.986Z" clip-rule="evenodd" opacity=".1"/>
      <path fill="#080808" d="M1786.37 483.423h15.428v45.141h-15.428z"/>
      <path fill="#080808" d="M1792.65 483.423h9.15v45.141h-9.15v-45.141Z" opacity=".1"/>
      <path fill="#080808" fill-rule="evenodd" d="m1792.37 384 29.44 44.998h-10.35l22.19 33.855h-12.61l19.04 28.57h-96l19.05-28.57h-12.61l22.18-33.855h-9.77L1792.37 384Z" clip-rule="evenodd"/>
      <path fill="#080808" fill-rule="evenodd" d="m1744.09 491.419-.01.004h.01v-.004Zm47.99.004h48l-19.04-28.57h12.61l-22.19-33.855h10.35L1792.37 384l-.29.437v106.986Z" clip-rule="evenodd" opacity=".1"/>
      <path fill="#080808" d="M1591.37 456.423h15.428v45.141h-15.428z"/>
      <path fill="#080808" d="M1597.65 456.423h9.15v45.141h-9.15v-45.141Z" opacity=".1"/>
      <path fill="#080808" fill-rule="evenodd" d="m1597.37 357 29.44 44.998h-10.35l22.19 33.855h-12.61l19.04 28.57h-96l19.05-28.57h-12.61l22.18-33.855h-9.77L1597.37 357Z" clip-rule="evenodd"/>
      <path fill="#080808" fill-rule="evenodd" d="m1549.09 464.419-.01.004h.01v-.004Zm47.99.004h48l-19.04-28.57h12.61l-22.19-33.855h10.35L1597.37 357l-.29.437v106.986Z" clip-rule="evenodd" opacity=".1"/>
      <path fill="#080808" d="M1639.37 478.423h15.428v45.141h-15.428z"/>
      <path fill="#080808" d="M1645.65 478.423h9.15v45.141h-9.15v-45.141Z" opacity=".1"/>
      <path fill="#080808" fill-rule="evenodd" d="m1645.37 379 29.44 44.998h-10.35l22.19 33.855h-12.61l19.04 28.57h-96l19.05-28.57h-12.61l22.18-33.855h-9.77L1645.37 379Z" clip-rule="evenodd"/>
      <path fill="#080808" fill-rule="evenodd" d="m1597.09 486.419-.01.004h.01v-.004Zm47.99.004h48l-19.04-28.57h12.61l-22.19-33.855h10.35L1645.37 379l-.29.437v106.986Z" clip-rule="evenodd" opacity=".1"/>
      <path fill="#080808" d="M1709.37 467.423h15.428v45.141h-15.428z"/>
      <path fill="#080808" d="M1715.65 467.423h9.15v45.141h-9.15v-45.141Z" opacity=".1"/>
      <path fill="#080808" fill-rule="evenodd" d="m1715.37 368 29.44 44.998h-10.35l22.19 33.855h-12.61l19.04 28.57h-96l19.05-28.57h-12.61l22.18-33.855h-9.77L1715.37 368Z" clip-rule="evenodd"/>
      <path fill="#080808" fill-rule="evenodd" d="m1667.09 475.419-.01.004h.01v-.004Zm47.99.004h48l-19.04-28.57h12.61l-22.19-33.855h10.35L1715.37 368l-.29.437v106.986Z" clip-rule="evenodd" opacity=".1"/>
    </g>
  </g>
  <defs>
    <clipPath id="a">
      <path fill="#fff" d="M0 0h1866v498H0z"/>
    </clipPath>
    <clipPath id="b">
      <rect width="574" height="254" x="-43" y="244" fill="#fff" rx="51"/>
    </clipPath>
    <clipPath id="c">
      <path fill="#fff" d="M1315 244h551v254h-297c-140.28 0-254-113.72-254-254Z"/>
    </clipPath>
  </defs>
</svg>
