<svg width="845" height="437" viewBox="0 0 845 437" fill="none" xmlns="http://www.w3.org/2000/svg">
<path d="M553.089 2.4502C545.676 10.7771 542.432 13.707 535.946 17.7163C527.954 22.7279 517.876 26.3516 506.641 28.2021C500.618 29.2044 495.405 29.3586 480.579 29.0502C459.266 28.5876 451.39 27.6624 401.815 19.3354C336.255 8.38702 310.888 5.84265 265.135 5.76556C237.799 5.76556 232.124 5.99689 219.961 7.46182C173.282 13.1673 135.058 26.1203 103.436 47.0148C77.1429 64.4397 64.8649 81.4019 63.3591 102.528C62.6641 113.63 64.6332 120.569 71.1197 129.205C85.4826 148.095 115.251 159.12 152.201 159.12C164.826 159.12 167.838 158.812 175.946 157.038C189.266 154.031 200.965 149.482 210.463 143.391C219.035 138.071 227.49 129.667 227.49 126.738C227.49 122.805 219.961 122.42 216.255 126.198C213.127 129.359 198.417 136.838 190.193 139.382C174.672 144.24 153.127 145.704 137.722 143.006C109.344 137.994 94.1699 125.118 93.8224 105.997C93.5907 91.9648 101.699 79.5515 120 65.7504C139.807 50.7927 168.185 39.3817 199.691 33.5992C218.571 30.1296 249.382 28.9731 272.201 30.8235C289.112 32.2113 314.71 35.9122 339.266 40.5383C352.008 42.9284 367.297 45.7812 373.32 46.8606C382.123 48.4797 383.861 49.0194 382.239 49.7133C370.54 54.4165 364.054 57.809 353.629 64.671C322.008 85.7968 289.923 121.803 253.9 176.93L248.919 184.564L233.282 185.951C202.471 188.573 181.506 192.659 155.097 201.217C88.1469 222.806 33.7065 265.674 9.38224 315.713C1.73747 331.519 0 338.689 0 354.263C0.11583 370.069 1.62164 375.466 9.38224 386.029C15.4054 394.356 28.7259 403.223 41.0039 407.155C55.3667 411.781 62.78 412.783 79.8069 412.783C97.6447 412.783 107.49 411.241 123.822 405.921C137.143 401.527 146.525 396.746 160.425 387.263C190.888 366.368 215.444 337.07 246.602 284.487C256.332 268.141 288.533 211.086 290.502 206.769C291.313 205.072 291.313 205.072 277.645 205.072C264.672 205.15 245.328 206.075 237.22 207.077C233.513 207.54 233.282 207.848 222.973 224.965C217.297 234.602 204.788 256.422 195.174 273.538C154.17 346.399 137.722 368.373 111.081 385.412C95.6757 395.281 81.6602 398.828 68.2239 396.284C61.2741 394.973 52.3552 389.653 48.5328 384.487C29.0734 357.964 54.5561 298.673 103.32 256.73C113.513 248.018 134.015 234.063 146.988 227.046C168.069 215.635 193.784 206.46 215.328 202.837C228.996 200.523 253.668 198.904 283.668 198.442C318.996 197.902 345.753 195.049 355.83 190.654C357.336 190.038 358.726 189.652 358.957 189.806C359.073 189.961 354.556 198.21 348.996 208.156C309.846 276.931 283.668 331.904 276.602 360.509C273.591 372.228 273.591 395.358 276.486 402.452C285.869 425.736 311.699 438.15 347.838 436.916C374.942 435.991 399.382 428.358 421.042 414.017C443.861 398.982 463.089 377.163 485.212 341.156C486.113 339.69 489.005 334.94 493.093 328.226C498.463 319.405 505.896 307.195 513.591 294.587C541.506 248.48 550.888 235.45 589.459 189.267C594.44 183.33 600.347 176.237 602.548 173.461C617.49 155.111 639.73 129.359 646.911 122.034C651.66 117.331 658.842 109.852 663.011 105.458C680.27 87.1845 706.216 67.0611 723.359 58.8113C755.791 43.0826 784.633 45.704 799.459 65.7504C821.235 95.0489 808.494 149.405 762.046 225.89C719.073 296.746 653.555 380.416 604.865 389.113C556.175 397.811 533.513 355.574 528.417 339.768C528.297 339.395 528.147 338.955 527.975 338.451C525.171 330.216 516.556 304.919 536.487 274.294C536.487 274.294 506.56 300.943 506.56 335.794C506.56 335.794 504.81 373.85 536.062 396.669C546.208 404.078 568.184 409.541 589.459 410C609.124 410.424 639.266 400.524 639.266 400.524C788.227 341.156 823.668 217.717 836.641 174.232C843.938 150.099 846.834 121.572 843.822 104.07C839.189 77.3927 827.374 56.8838 808.61 43.3139C802.587 38.9962 789.961 33.4449 781.506 31.5174C767.838 28.2791 748.262 28.8188 730.309 32.8281C705.869 38.3023 682.123 48.8652 652.471 67.5237C615.521 90.7312 601.737 95.4344 563.398 97.9016C544.517 99.1353 542.317 99.5208 540.347 101.911C537.568 105.149 540 107.385 549.266 110.546C558.185 113.553 559.344 114.247 560.386 117.562C561.428 120.878 558.185 136.298 554.247 146.553C550.425 156.884 506.757 252.49 495.521 275.312C464.016 339.768 442.703 371.92 417.336 393.354C398.108 409.622 367.413 420.416 347.259 417.949C338.224 416.793 333.591 415.096 328.263 411.087C319.807 404.765 316.332 392.12 318.88 377.779C322.703 357.425 332.896 333.446 367.297 264.055C400.193 197.748 423.591 155.034 442.008 127.431C447.915 118.642 448.263 116.869 445.019 113.862C444.093 113.091 441.197 112.165 438.533 111.703C429.382 110.392 399.035 115.635 388.378 120.492C382.703 123.037 382.008 125.504 385.483 130.515C387.104 132.829 388.494 135.758 388.494 137.146C388.494 140.307 381.544 152.721 374.942 161.356C365.444 173.692 355.483 178.858 336.371 181.479C327.22 182.713 303.938 184.024 303.938 183.253C303.938 182.482 328.031 143.083 333.475 134.91C341.351 123.191 357.22 102.296 365.444 92.6588C387.22 67.5237 407.027 54.1852 423.359 53.7226C426.139 53.6455 436.448 54.1081 446.178 54.7249C460.425 55.5731 466.1 55.5731 475.83 54.802C498.185 53.1058 515.907 48.9423 531.776 41.7719C539.652 38.2252 551.235 30.3609 555.869 25.4264C563.745 17.0995 567.22 4.14642 562.471 1.29367C558.996 -0.788055 555.521 -0.325439 553.089 2.4502Z" fill="#000F0C"/>
</svg>
